<?xml version="1.0" encoding="iso-8859-1"?>
<!-- Generator: Adobe Illustrator 19.0.0, SVG Export Plug-In . SVG Version: 6.00 Build 0)  -->
<svg version="1.1" id="Layer_1" xmlns="http://www.w3.org/2000/svg" xmlns:xlink="http://www.w3.org/1999/xlink" x="0px" y="0px"
	 viewBox="0 0 512 512" style="enable-background:new 0 0 512 512;" xml:space="preserve">
<path style="fill:#1E848E;" d="M165.205,413.355c-0.128,1.587-0.128,3.191,0,4.779c-1.988-1.024-4.036-1.903-6.144-2.645
	C161.067,414.652,163.115,413.935,165.205,413.355z"/>
<path style="fill:#2FBCD3;" d="M392.533,375.467c-8.781-0.06-17.553,0.401-26.283,1.365c-17.852,1.126-35.174,6.511-50.517,15.701
	l0,0c-3.823-4.992-8.764-9.028-14.421-11.776c-16.384-7.159-34.748-8.431-51.968-3.584c-22.699,5.888-41.813,20.48-41.813,40.96
	c-13.193-6.639-28.331-8.337-42.667-4.779c-0.128,1.587-0.128,3.191,0,4.779c-1.988-1.024-4.036-1.903-6.144-2.645
	c-18.97,6.861-31.369,25.148-30.72,45.312c-10.146-10.854-22.98-18.833-37.205-23.125c-12.066-3.354-24.909-2.637-36.523,2.048
	c-26.078,10.88-43.785,35.55-45.739,63.744h494.933C503.467,418.133,444.416,375.467,392.533,375.467z"/>
<path style="fill:#1E848E;" d="M503.467,503.467H460.8c0-76.8-47.36-118.613-94.549-126.635c8.73-0.964,17.502-1.425,26.283-1.365
	C444.416,375.467,503.467,418.133,503.467,503.467z"/>
<g>
	<path style="fill:#FFFFFF;" d="M435.2,469.333c-4.548,0.009-8.303-3.558-8.533-8.107c-0.811-9.941-5.538-19.149-13.141-25.6
		c-10.539-7.979-23.979-11.076-36.949-8.533c-4.668,0.623-8.969-2.654-9.591-7.33c-0.026-0.171-0.043-0.35-0.051-0.521
		c-0.64-4.668,2.62-8.977,7.296-9.617c0.068-0.009,0.145-0.017,0.213-0.026c17.715-3.251,35.968,1.289,50.091,12.459
		c11.366,9.609,18.304,23.458,19.2,38.315c0.239,4.71-3.388,8.713-8.098,8.951C435.49,469.333,435.345,469.333,435.2,469.333z"/>
	<path style="fill:#FFFFFF;" d="M292.864,494.933c-4.71,0-8.533-3.823-8.533-8.533c0-12.459,10.923-23.637,20.309-29.44
		c10.112-7.27,23.279-8.721,34.731-3.84c4.284,1.971,6.161,7.031,4.19,11.315s-7.031,6.161-11.315,4.19
		c-0.162-0.077-0.316-0.154-0.469-0.23c-6.17-2.048-12.945-0.896-18.091,3.072c-6.007,3.038-10.462,8.457-12.288,14.933
		C301.397,491.11,297.574,494.933,292.864,494.933z"/>
	<path style="fill:#FFFFFF;" d="M224.597,486.4c-4.71,0-8.533-3.823-8.533-8.533c0-9.429-7.637-17.067-17.067-17.067
		c-4.71,0-8.533-3.823-8.533-8.533s3.823-8.533,8.533-8.533c18.85,0,34.133,15.283,34.133,34.133
		C233.131,482.577,229.308,486.4,224.597,486.4z"/>
</g>
<path style="fill:#1E848E;" d="M315.733,392.533c-12.169,8.132-21.197,20.173-25.6,34.133"/>
<path d="M503.467,512c-4.71,0-8.533-3.823-8.533-8.533c0-77.568-52.736-119.467-102.4-119.467
	c-53.931,0-83.883,14.421-94.293,45.397c-1.203,4.557-5.879,7.27-10.436,6.067c-4.557-1.203-7.27-5.879-6.067-10.436
	c0.102-0.375,0.222-0.734,0.367-1.092c19.123-57.003,87.817-57.003,110.43-57.003c57.941,0,119.467,47.872,119.467,136.533
	C512,508.177,508.177,512,503.467,512z"/>
<path d="M8.533,512C3.823,512,0,508.177,0,503.467c2.005-31.215,21.265-58.709,49.92-71.253c24.201-9.856,51.874-5.419,71.765,11.52
	c3.669-13.175,12.245-24.448,23.979-31.488c16.657-9.728,36.651-11.964,55.04-6.144c4.779-15.616,19.029-28.416,40.107-35.499
	c27.563-9.216,64.427-6.4,81.749,16.64c2.825,3.772,2.057,9.122-1.715,11.947c-3.772,2.825-9.105,2.057-11.938-1.707
	c-12.288-16.384-41.472-17.749-62.72-10.667c-7.083,2.389-30.208,11.605-30.208,31.147c-0.017,4.71-3.849,8.525-8.559,8.508
	c-1.323,0-2.628-0.316-3.814-0.913c-15.497-7.979-33.98-7.526-49.067,1.195c-11.699,7.279-18.577,20.284-18.005,34.048
	c0.026,4.71-3.772,8.559-8.482,8.585c-2.295,0.017-4.497-0.896-6.11-2.526c-26.88-26.88-50.432-25.088-65.451-18.859
	c-22.349,9.822-37.495,31.13-39.424,55.467C17.067,508.177,13.244,512,8.533,512z"/>
<path style="fill:#FFFFFF;" d="M51.2,503.467c-4.71,0-8.533-3.823-8.533-8.533c0-14.14,11.46-25.6,25.6-25.6
	c4.71,0,8.533,3.823,8.533,8.533s-3.823,8.533-8.533,8.533s-8.533,3.823-8.533,8.533S55.91,503.467,51.2,503.467z"/>
<g>
	<path style="fill:#1E848E;" d="M341.333,68.267c0,32.99-26.743,59.733-59.733,59.733c-5.777,0.017-11.529-0.819-17.067-2.475
		c-31.625-9.395-49.638-42.65-40.243-74.274c5.751-19.354,20.89-34.492,40.243-40.243c5.538-1.655,11.29-2.492,17.067-2.475
		C314.59,8.533,341.333,35.277,341.333,68.267z"/>
	<path style="fill:#1E848E;" d="M179.2,307.2c0.009,47.13-38.187,85.342-85.316,85.35c-5.734,0-11.46-0.58-17.084-1.724l0,0
		c-46.182-9.378-76.023-54.426-66.645-100.608c6.818-33.579,33.067-59.827,66.645-66.645l0,0
		c46.174-9.429,91.247,20.369,100.676,66.543C178.62,295.74,179.2,301.466,179.2,307.2z"/>
	<path style="fill:#1E848E;" d="M179.2,128c0,28.279-22.921,51.2-51.2,51.2c-5.82,0.017-11.597-0.998-17.067-2.987
		c-26.624-9.515-40.499-38.818-30.985-65.442c5.163-14.447,16.538-25.822,30.985-30.985c5.47-1.988,11.247-3.004,17.067-2.987
		C156.279,76.8,179.2,99.721,179.2,128z"/>
	<path style="fill:#1E848E;" d="M503.467,238.933c0,56.55-45.85,102.4-102.4,102.4s-102.4-45.85-102.4-102.4
		s45.85-102.4,102.4-102.4S503.467,182.383,503.467,238.933z"/>
</g>
<g>
	<path style="fill:#2FBCD3;" d="M307.2,68.267c0.009,26.419-17.348,49.707-42.667,57.259c-31.625-9.395-49.638-42.65-40.243-74.274
		c5.751-19.354,20.89-34.492,40.243-40.243C289.852,18.56,307.209,41.847,307.2,68.267z"/>
	<path style="fill:#2FBCD3;" d="M145.067,307.2c0.009,40.559-28.527,75.511-68.267,83.627l0,0
		c-46.182-9.378-76.023-54.426-66.645-100.608c6.818-33.579,33.067-59.827,66.645-66.645l0,0
		C116.54,231.689,145.075,266.641,145.067,307.2z"/>
	<path style="fill:#2FBCD3;" d="M145.067,128c-0.026,21.675-13.696,40.986-34.133,48.213c-26.624-9.515-40.499-38.818-30.985-65.442
		c5.163-14.447,16.538-25.822,30.985-30.985C131.371,87.014,145.041,106.325,145.067,128z"/>
	<path style="fill:#2FBCD3;" d="M469.333,238.933c-0.009,49.963-36.07,92.621-85.333,100.949
		c-55.757-9.489-93.261-62.37-83.772-118.127c7.296-42.88,40.892-76.476,83.772-83.772
		C433.263,146.313,469.325,188.971,469.333,238.933z"/>
</g>
<path d="M281.6,136.533c-37.7,0-68.267-30.566-68.267-68.267S243.9,0,281.6,0s68.267,30.566,68.267,68.267
	S319.3,136.533,281.6,136.533z M281.6,17.067c-28.279,0-51.2,22.921-51.2,51.2s22.921,51.2,51.2,51.2
	c28.279,0,51.2-22.921,51.2-51.2S309.879,17.067,281.6,17.067z"/>
<path d="M93.867,401.067C42.027,401.067,0,359.04,0,307.2s42.027-93.867,93.867-93.867s93.867,42.027,93.867,93.867
	S145.707,401.067,93.867,401.067z M93.867,230.4c-42.419,0-76.8,34.381-76.8,76.8s34.381,76.8,76.8,76.8s76.8-34.381,76.8-76.8
	S136.286,230.4,93.867,230.4z"/>
<path d="M128,187.733c-32.99,0-59.733-26.743-59.733-59.733S95.01,68.267,128,68.267S187.733,95.01,187.733,128
	S160.99,187.733,128,187.733z M128,85.333c-23.561,0-42.667,19.106-42.667,42.667s19.106,42.667,42.667,42.667
	s42.667-19.106,42.667-42.667S151.561,85.333,128,85.333z"/>
<path d="M401.067,349.867c-61.269,0-110.933-49.664-110.933-110.933S339.797,128,401.067,128S512,177.664,512,238.933
	S462.336,349.867,401.067,349.867z M401.067,145.067c-51.84,0-93.867,42.027-93.867,93.867s42.027,93.867,93.867,93.867
	s93.867-42.027,93.867-93.867S452.907,145.067,401.067,145.067z"/>
<g>
	<path style="fill:#FFFFFF;" d="M256,76.8c-4.71,0-8.533-3.823-8.533-8.533c0-18.85,15.283-34.133,34.133-34.133
		c4.71,0,8.533,3.823,8.533,8.533S286.31,51.2,281.6,51.2c-9.429,0-17.067,7.637-17.067,17.067C264.533,72.977,260.71,76.8,256,76.8
		z"/>
	<path style="fill:#FFFFFF;" d="M110.933,136.533c-4.71,0-8.533-3.823-8.533-8.533c0-14.14,11.46-25.6,25.6-25.6
		c4.71,0,8.533,3.823,8.533,8.533c0,4.71-3.823,8.533-8.533,8.533c-4.71,0-8.533,3.823-8.533,8.533
		C119.467,132.71,115.644,136.533,110.933,136.533z"/>
	<path style="fill:#FFFFFF;" d="M42.667,315.733c-4.71,0-8.533-3.823-8.533-8.533c0-32.99,26.743-59.733,59.733-59.733
		c4.71,0,8.533,3.823,8.533,8.533c0,4.71-3.823,8.533-8.533,8.533c-23.561,0-42.667,19.106-42.667,42.667
		C51.2,311.91,47.377,315.733,42.667,315.733z"/>
	<path style="fill:#FFFFFF;" d="M332.8,247.467c-4.71,0-8.533-3.823-8.533-8.533c0-42.419,34.381-76.8,76.8-76.8
		c4.71,0,8.533,3.823,8.533,8.533s-3.823,8.533-8.533,8.533c-32.99,0-59.733,26.743-59.733,59.733
		C341.333,243.644,337.51,247.467,332.8,247.467z"/>
</g>

</svg>
